<svg id="Capa_1" data-name="Capa 1" xmlns="http://www.w3.org/2000/svg" viewBox="0 0 477.53 443.74"><defs><style>.cls-1,.cls-2{fill:#9b7c45;}.cls-2{stroke:#9b7c45;stroke-miterlimit:10;stroke-width:130px;}</style></defs><title>hart2</title><path class="cls-1" d="M438.48,58.61a130.49,130.49,0,0,0-191.25,0L238.8,67.5l-8.43-8.91A130.59,130.59,0,0,0,45.83,51.81q-3.51,3.27-6.78,6.78a146.46,146.46,0,0,0,0,199.14L226.41,455.31a17.07,17.07,0,0,0,24.13.65l.65-.65L438.48,257.73A146.43,146.43,0,0,0,438.48,58.61ZM413.79,234.23h0l-175,184.54-175-184.54a111.91,111.91,0,0,1,0-152.15,96.45,96.45,0,0,1,136.3-5.49q2.85,2.64,5.49,5.49L226.41,104a17.56,17.56,0,0,0,24.78,0L272,82.09a96.45,96.45,0,0,1,136.3-5.48q2.85,2.63,5.49,5.48C453.91,125.08,454.21,191.52,413.79,234.23Z" transform="translate(0 -16.9)"/><path class="cls-1" d="M414.67,76.23a114.79,114.79,0,0,0-168.24,0L239,84.06l-7.42-7.84a114.85,114.85,0,0,0-162.33-6q-3.09,2.86-6,6a128.84,128.84,0,0,0,0,175.17L228.12,425.2a15,15,0,0,0,21.22.58l.58-.58L414.67,251.39A128.8,128.8,0,0,0,414.67,76.23ZM393,230.72h0L239,393.06,85.09,230.72a98.43,98.43,0,0,1,0-133.84A84.84,84.84,0,0,1,205,92.05c1.68,1.55,3.29,3.15,4.83,4.83l18.3,19.3a15.45,15.45,0,0,0,21.8,0l18.3-19.29a84.86,84.86,0,0,1,119.91-4.82q2.5,2.31,4.82,4.82C428.25,134.7,428.51,193.15,393,230.72Z" transform="translate(0 -16.9)"/><path class="cls-1" d="M391.82,93.62a99.74,99.74,0,0,0-146.17,0l-6.44,6.81-6.45-6.81a99.8,99.8,0,0,0-141-5.18c-1.79,1.67-3.52,3.39-5.18,5.18a111.93,111.93,0,0,0,0,152.2l143.2,151a13,13,0,0,0,18.44.5l.5-.5,143.14-151A111.9,111.9,0,0,0,391.82,93.62ZM373,227.84h0l-133.73,141-133.74-141a85.52,85.52,0,0,1,0-116.29,73.73,73.73,0,0,1,104.18-4.19q2.17,2,4.19,4.19l15.9,16.78a13.45,13.45,0,0,0,18.94,0l15.9-16.77a73.73,73.73,0,0,1,104.18-4.19q2.17,2,4.19,4.19C403.62,144.42,403.84,195.2,373,227.84Z" transform="translate(0 -16.9)"/><path class="cls-1" d="M374.22,110.27a88.13,88.13,0,0,0-129.15,0l-5.7,6-5.69-6a88.18,88.18,0,0,0-124.62-4.57q-2.37,2.2-4.58,4.57a98.91,98.91,0,0,0,0,134.48L231,378.17a11.53,11.53,0,0,0,16.29.44l.44-.44L374.22,244.74A98.9,98.9,0,0,0,374.22,110.27Zm-16.68,118.6h0L239.37,353.49,121.21,228.87a75.56,75.56,0,0,1,0-102.75,65.13,65.13,0,0,1,92-3.7c1.29,1.18,2.52,2.42,3.71,3.7l14,14.82a11.87,11.87,0,0,0,16.73,0l14.05-14.81a65.14,65.14,0,0,1,92-3.7c1.28,1.18,2.52,2.42,3.7,3.7C384.64,155.16,384.84,200,357.54,228.87Z" transform="translate(0 -16.9)"/><path class="cls-1" d="M361.44,124.2c-15.08-15.14-36.22-23.75-58.36-23.79s-43.31,8.64-58.41,23.78l-5.15,5.08-5.15-5.08c-30-30.13-80.41-31.86-112.67-3.86q-2.15,1.86-4.14,3.86c-31.79,32-31.79,81.54,0,113.57L232,350.45a10.94,10.94,0,0,0,14.73.37l.4-.37L361.44,237.76C393.23,205.73,393.23,156.23,361.44,124.2ZM346.36,224.36h0L239.52,329.61,132.68,224.36c-24.29-24.47-24.29-62.3,0-86.77,22.06-22.33,59.32-23.73,83.22-3.13,1.17,1,2.28,2,3.35,3.13L232,150.1a11.27,11.27,0,0,0,15.13,0l12.7-12.5c22-22.33,59.32-23.73,83.22-3.13q1.74,1.5,3.35,3.13C370.86,162.11,371,200,346.36,224.36Z" transform="translate(0 -16.9)"/><path class="cls-2" d="M345,149.51a66.22,66.22,0,0,0-97,0L243.68,154l-4.28-4.52a66.26,66.26,0,0,0-93.63-3.44q-1.78,1.66-3.44,3.44a74.31,74.31,0,0,0,0,101l95.06,100.25a8.66,8.66,0,0,0,12.24.33l.33-.33,95-100.25A74.3,74.3,0,0,0,345,149.51Zm-12.53,89.1h0l-88.77,93.64-88.79-93.64a56.78,56.78,0,0,1,0-77.19,48.94,48.94,0,0,1,69.16-2.78c1,.89,1.89,1.81,2.78,2.78l10.56,11.13a8.91,8.91,0,0,0,12.57,0l10.56-11.12a49,49,0,0,1,69.16-2.79c1,.89,1.89,1.82,2.78,2.79A56.25,56.25,0,0,1,332.46,238.61Z" transform="translate(0 -16.9)"/></svg>