<?xml version="1.0" encoding="UTF-8" standalone="no"?><svg width="214" height="18" viewBox="0 0 214 18" xmlns="http://www.w3.org/2000/svg"><title>logo</title><g class="icon-fill" fill="#000" fill-rule="evenodd"><path d="M.184 11.386H.94c1.276 3.695 3.378 5.508 5.662 5.508.953 0 1.78-.3 2.457-.9.677-.6 1.02-1.374 1.02-2.31 0-.877-.23-1.56-.676-2.044-.448-.496-.988-.83-1.62-1.027-.63-.196-1.457-.382-2.48-.556-1.02-.172-1.756-.323-2.18-.472C1.125 8.89 0 7.345 0 5.358 0 2.876 1.768.646 4.535.646c.494 0 1.103.07 1.826.22.724.138 1.253.207 1.586.207.413 0 .803-.09 1.17-.276h.873l.493 4.746H9.68C8.93 4.123 8.14 3.048 7.313 2.31c-.816-.752-1.78-1.12-2.893-1.12-1.63-.036-3.145 1.317-3.11 2.955 0 1.536 1.055 2.275 3.088 2.69 2.055.417 3.72.635 4.672 1.098 1.746.866 2.756 2.45 2.756 4.376.07 2.736-2.26 5.288-5.224 5.23-.562 0-.976-.046-1.262-.126-.287-.08-.77-.254-1.46-.497-.688-.242-1.216-.368-1.583-.368-.61 0-1.103.23-1.46.703H.185v-5.867M30.57.715v5.117h-.712C28.41 2.782 26.55 1.27 24.244 1.27c-1.596 0-2.917.74-3.836 2.078-.918 1.33-1.457 3.314-1.457 5.485-.045 4.527 2.514 7.84 5.97 7.784 2.125 0 4.076-1.062 5.65-3.222l.678.38c-1.734 2.507-4.134 3.79-7.292 3.79-4.914.057-8.44-3.823-8.392-8.397 0-2.46.93-4.642 2.456-6.166 1.55-1.524 3.63-2.38 5.913-2.38.425 0 .827.035 1.194.105.38.057.816.16 1.332.3l1.033.277c.183.036.39.058.63.058.61 0 1.103-.22 1.505-.647h.942M43.428 16.894c2.79 0 5.05-2.403 5.05-7.022 0-2.53-.62-4.745-1.675-6.235C45.758 2.124 44.3 1.27 42.658 1.27c-2.87 0-4.914 2.586-4.914 6.523-.046 5.38 2.423 9.17 5.684 9.1zm-8.095-11.63c.505-1.12 1.298-2.136 2.216-2.886C39.052 1.143 40.854.623 43.174.623c5.19-.046 8.588 3.892 8.553 8.372.057 4.838-3.858 8.58-8.886 8.545-2.354 0-4.477-.877-5.96-2.39-1.468-1.514-2.318-3.685-2.318-6.133 0-1.385.265-2.633.77-3.752zM55.65.934h14.593l.827 3.812h-.827c-.586-.993-1.205-1.722-1.848-2.183-.643-.462-1.252-.74-1.826-.83-.563-.094-1.31-.152-2.228-.163V14.7c0 1.536.62 1.825 2.572 1.894v.636h-8.05v-.636c1.964-.08 2.538-.207 2.607-2.033V1.57c-1.652.01-2.87.345-3.696.89-.414.265-.758.552-1.034.864-.264.302-.666.775-1.194 1.422h-.7L55.65.934M88.97.715v5.117h-.713C86.81 2.782 84.95 1.27 82.642 1.27c-1.595 0-2.915.74-3.834 2.078-.92 1.33-1.458 3.314-1.458 5.485-.046 4.527 2.514 7.84 5.97 7.784 2.124 0 4.076-1.063 5.65-3.222l.676.38c-1.734 2.507-4.133 3.79-7.29 3.79-4.914.057-8.44-3.823-8.393-8.397 0-2.46.93-4.642 2.458-6.166 1.55-1.524 3.628-2.38 5.913-2.38.424 0 .826.035 1.193.105.38.057.816.16 1.333.3l1.032.277c.183.036.39.058.63.058.61 0 1.104-.22 1.505-.647h.942M104.157 17.23v-.636c.77-.035 1.31-.115 1.62-.23.31-.115.517-.324.62-.612.103-.29.16-.776.16-1.457V9.26h-8.163v4.78c0 1.145.058 1.63.344 1.99.31.333.803.46 2.032.564v.636H93.1v-.636c1.103-.035 1.63-.115 1.964-.438.356-.323.46-.855.46-1.906V3.417c0-.74-.173-1.224-.518-1.444-.333-.23-.976-.368-1.906-.403V.933h7.67v.637c-.757.01-1.297.092-1.63.242-.333.15-.54.405-.62.74-.08.335-.126.876-.126 1.627v4.227h8.163v-4.85c0-.567-.07-.982-.195-1.237-.126-.265-.355-.438-.666-.53-.31-.093-.827-.163-1.54-.22V.933h7.672v.637c-.77.022-1.31.092-1.63.22-.31.125-.518.357-.62.692-.104.335-.15.9-.15 1.697v10.07c0 .635.046 1.11.138 1.432.195.647.78.947 2.262.912v.636h-7.67M125.812 4.595c0-.265-.116-.588-.357-.982-.24-.392-.528-.728-.884-1.016-.343-.29-.677-.438-.986-.438-.356 0-.678.137-.953.425-.275.29-.413.565-.413.855 0 .427.207.82.712 1.41.504.564.93.945 1.49 1.545.932-.68 1.392-1.28 1.392-1.8zm.413 8.545c-.38-.577-.724-1.062-1.023-1.465-.287-.405-.665-.89-1.114-1.445-.447-.567-.895-1.086-1.354-1.558-.747.646-1.297 1.223-1.63 1.743-.333.52-.494 1.075-.494 1.685-.058 1.825 1.756 3.79 3.56 3.732 1.056 0 2.01-.487 2.87-1.467l-.815-1.225zm-8.06.45c.033-1.535.71-2.494 2.146-3.834.656-.634 1.32-1.165 1.976-1.605-1.25-1.372-1.883-2.458-1.883-3.244-.058-1.454 2.893-4.365 4.73-4.283 1.643 0 2.768 1.674 2.768 2.77 0 .405-.137.786-.4 1.168-.265.38-.564.705-.908.982-.333.278-.907.715-1.723 1.33 1.802 2.018 3.02 3.763 3.95 5.206 1.136-1.478 1.72-2.656 1.72-3.36 0-.75-.664-1.352-1.72-1.352V6.73h5.533v.636c-.562.08-1.102.335-1.607.774-.494.427-1 .982-1.493 1.663-.494.68-1.147 1.64-1.986 2.887l.712 1.085c.493.75.872 1.247 1.146 1.513.277.255.586.382.92.382.596 0 1.148-.463 1.64-1.398l.564.267c-.838 2.042-2.044 3-3.456 3-1.194 0-2.41-1.004-3.365-2.61-.804.82-1.676 1.467-2.618 1.93-.93.45-1.802.68-2.618.68-2.308.07-4.064-1.952-4.03-3.95zM141.026 11.363h.758c1.275 3.695 3.375 5.507 5.66 5.507.953 0 1.78-.3 2.456-.9.677-.6 1.022-1.375 1.022-2.308 0-.88-.23-1.56-.678-2.045-.447-.496-.987-.832-1.618-1.028-.632-.197-1.458-.382-2.48-.555-1.022-.172-1.756-.323-2.18-.473-1.998-.693-3.122-2.24-3.122-4.225 0-2.482 1.767-4.712 4.533-4.712.494 0 1.102.07 1.825.22.724.138 1.252.208 1.584.208.414 0 .805-.092 1.172-.277h.872l.494 4.745h-.804c-.746-1.42-1.538-2.493-2.365-3.232-.814-.75-1.778-1.12-2.892-1.12-1.63-.034-3.146 1.317-3.112 2.956 0 1.536 1.058 2.274 3.09 2.69 2.054.416 3.72.634 4.672 1.097 1.744.867 2.755 2.45 2.755 4.377.07 2.735-2.262 5.288-5.224 5.23-.562 0-.975-.046-1.263-.127-.286-.08-.768-.254-1.457-.496-.69-.243-1.217-.37-1.584-.37-.61 0-1.103.232-1.46.704h-.654v-5.865M165.48 16.894c2.788 0 5.05-2.403 5.05-7.022 0-2.53-.62-4.745-1.677-6.235-1.044-1.513-2.502-2.368-4.144-2.368-2.87 0-4.914 2.586-4.914 6.523-.047 5.38 2.422 9.17 5.683 9.1zm-8.095-11.63c.505-1.12 1.297-2.136 2.215-2.886 1.504-1.235 3.306-1.755 5.626-1.755 5.19-.046 8.588 3.892 8.553 8.372.056 4.838-3.86 8.58-8.887 8.545-2.354 0-4.478-.877-5.96-2.39-1.468-1.514-2.318-3.685-2.318-6.133 0-1.385.264-2.633.77-3.752zM182.22 14.226c0 .67.046 1.155.138 1.468.183.6.78.9 2.33.9 1.665 0 2.928-.3 4.122-1.166 2.113-1.514 2.756-3.362 2.79-6.168 0-2.747-.804-4.803-2.4-6.178-1.274-1.096-2.743-1.512-4.845-1.512-.723 0-1.228.104-1.527.324-.287.207-.47.508-.528.913-.058.39-.08 1.097-.08 2.1v9.32zm-5.224 3.004v-.636c1.917-.08 2.273-.323 2.33-1.87V3.103c0-.564-.183-.957-.55-1.154-.37-.194-.965-.323-1.78-.38V.934h9.484c4.948-.046 8.45 3.547 8.416 8.257 0 2.3-.862 4.308-2.423 5.752-1.56 1.445-3.8 2.288-6.372 2.288h-9.104zM201.88 10.347h4.87l-2.446-6.226-2.423 6.227zm5.157.74h-5.43l-.76 1.962c-.195.495-.298 1.016-.298 1.557 0 .52.16.97.48 1.364.334.393.782.602 1.367.624v.636h-5.316v-.636c1.184-.173 2.148-1.2 2.872-3.083l3.973-10.23c-.207-.36-.425-.602-.654-.73-.23-.126-.563-.217-1.01-.264V1.72l2.755-.947h1.057l5.316 13.638c.31.776.61 1.296.918 1.572.31.267.77.474 1.4.612v.636h-6.82v-.636c1.184-.126 1.77-.287 1.77-.992 0-.312-.115-.717-.334-1.213l-1.285-3.304z"/></g></svg>